# xmcd
#
# Track frame offsets: 
#        150
#        9779
#        21181
#        32983
#        43200
#        54355
#        63549
#        73425
#        85497
#        97440
#        109851
#
# Disc length: 1586 seconds
#
# Revision: 1
# Processed by: cddbd v1.5.2PL0 Copyright (c) Steve Scherf et al.
# Submitted via: ExactAudioCopy v1.3
#
DISCID=9f06300b
DTITLE=Loretta Lynn - Greatest Hits
DYEAR=1968
DGENRE=Country
TTITLE0=Don't Come Home A 'Drinkin (With Lovin' on Yo
TTITLE1=Before I'm Over You
TTITLE2=If You're Not Gone Too Long
TTITLE3=Dear Uncle Sam
TTITLE4=The Other Woman
TTITLE5=Wine Women and Song
TTITLE6=You Ain't Woman Enough
TTITLE7=Blue Kentucky Girl
TTITLE8=Success
TTITLE9=The Home You're Tearin' Down
TTITLE10=Happy Birthday
EXTD=
EXTT0=
EXTT1=
EXTT2=
EXTT3=
EXTT4=
EXTT5=
EXTT6=
EXTT7=
EXTT8=
EXTT9=
EXTT10=
PLAYORDER=
